<svg viewBox="0 0 32 17" xmlns="http://www.w3.org/2000/svg"><path d="m0 0h32v17h-32z" fill="none"/><path d="m8.2923 17h23.7077v-17h-23.7077l-8.0252 8.5z" fill="#d8242a"/><path d="m24.9167 0h7.0833v17h-7.0833z" fill="#fff"/><g fill="#231f20"><path d="m30.348 5.1436c.0264.0732.0425.1318.0488.1748.0068.043-.002.0752-.0259.0967s-.0664.0352-.127.04c-.061.0049-.1445.0078-.251.0078-.1104 0-.1968-.002-.2588-.0049s-.1089-.0088-.1416-.0186c-.0327-.0088-.0552-.0215-.0684-.0381s-.0239-.0381-.0327-.0645l-.2832-.7979h-1.583l-.2666.7764c-.0088.0283-.0205.0527-.0342.0723-.0142.0195-.0371.0352-.0688.0459-.0312.0107-.0757.0186-.1333.0234-.0576.0039-.1328.0059-.2266.0059-.0996 0-.1777-.0029-.2344-.0098-.0562-.0059-.0957-.0205-.1172-.0439s-.0293-.0566-.0229-.0996c.0068-.043.0229-.1006.0488-.1719l1.2998-3.5244c.0127-.0342.0278-.0625.0454-.084s.0449-.0381.083-.0488c.0381-.0117.0908-.0186.1582-.0215.0669-.0039.1562-.0049.2671-.0049.1279 0 .23.001.3057.0049.0762.0029.1353.0098.1777.0215.0425.0107.0728.0273.0913.0498.0181.0225.0342.0537.0469.0928l1.3027 3.5205zm-1.9341-2.9131h-.0034l-.5962 1.6885h1.1953z"/><path d="m30.1727 12.1465c0 .0596-.0029.1113-.0083.1543s-.0132.0771-.0229.1025-.0215.043-.0356.0537c-.0142.0098-.0308.0156-.0503.0156-.0283 0-.0742-.0186-.1372-.0557s-.1465-.0771-.2505-.1201c-.1045-.043-.2285-.082-.373-.1191s-.312-.0557-.5029-.0557c-.2041 0-.3887.0332-.5537.0996-.165.0674-.3062.1611-.4233.2832-.1172.1211-.2075.2676-.2705.4385s-.0942.3594-.0942.5664c0 .2275.0317.4268.0957.6006.0645.1729.1538.3174.269.4336.1147.1172.2534.2051.415.2646.1616.0586.3403.0889.5356.0889.0957 0 .1899-.0107.2837-.0312.0933-.0205.1802-.0508.2603-.0918v-.9209h-.7979c-.0391 0-.0693-.0225-.0913-.0693-.0215-.0459-.0322-.124-.0322-.2344 0-.0576.0024-.1055.0078-.1445s.0137-.0703.0244-.0938.0239-.041.0391-.0518c.0151-.0117.0327-.0166.0522-.0166h1.4233c.0347 0 .0654.0049.0928.0166.0269.0107.0508.0283.0718.0508.0205.0225.0361.0498.0469.0811.0107.0322.0166.0684.0166.1094v1.5801c0 .0615-.0117.1152-.0342.1611-.0229.0469-.0698.083-.1401.1094-.0708.0264-.1582.0547-.2622.083-.1045.0283-.2124.0527-.3242.0732s-.2246.0361-.3384.0459c-.1143.0107-.2285.0156-.3438.0156-.3364 0-.6377-.0459-.9038-.1367s-.4912-.2227-.6758-.3955-.3257-.3838-.4233-.6328c-.0977-.248-.1465-.5303-.1465-.8457 0-.3252.0522-.6172.1562-.876s.252-.4785.4429-.6602c.1909-.1807.4219-.3193.6919-.416.2705-.0957.5718-.1436.9038-.1436.1826 0 .3486.0117.4985.0352s.2803.0518.3921.0859c.1118.0332.2051.0693.2788.1084s.1255.0732.1548.1016.0503.0693.0635.1211c.0127.0527.0195.1299.0195.2314z"/><path d="m29.655 7.9462c-.1241.122-.3246.122-.4487 0l-.4296-.4193v2.7004c0 .1752-.1432.3129-.3183.3129s-.3183-.1377-.3183-.3129v-2.6941l-.4296.4224c-.0605.0595-.1432.0907-.2228.0907s-.1623-.0313-.226-.0907c-.1241-.1252-.1241-.3223 0-.4443l.9325-.9137s.0095-.0094.0127-.0156l.0573-.0563s.0095-.0094.0159-.0125c.0509-.0344.1114-.0532.1782-.0532.0891 0 .1655.0344.226.0907l.9707.9544c.1241.122.1241.3192 0 .4412z"/></g><path d="m21.3939 4.5869c0 .1738-.0078.3242-.0225.4502-.0156.126-.0361.2266-.0635.3008-.0273.0752-.0605.1279-.0996.1572-.0391.0303-.085.0449-.1396.0449-.0781 0-.2041-.0537-.3779-.1611-.1748-.1084-.4062-.2256-.6943-.3516-.2891-.125-.6328-.2422-1.0322-.3506-.4004-.1074-.8643-.1611-1.3926-.1611-.5654 0-1.0762.0967-1.5332.292-.457.1943-.8477.4707-1.1719.8271s-.5742.7852-.748 1.2861c-.1748.5-.2617 1.0537-.2617 1.6592 0 .665.0889 1.251.2656 1.7578.1777.5068.4258.9307.7441 1.2725s.7021.5996 1.1494.7734.9424.2607 1.4834.2607c.2637 0 .5254-.0303.7842-.0898.2578-.0596.499-.1504.7207-.2695v-2.6982h-2.208c-.1084 0-.1924-.0674-.2529-.2021-.0596-.1348-.0898-.3643-.0898-.6875 0-.168.0068-.3096.0225-.4229.0146-.1143.0371-.2061.0674-.2744.0303-.0693.0664-.1201.1084-.1533.042-.0322.0898-.0488.1445-.0488h3.9395c.0957 0 .1816.0166.2568.0488.0752.0332.1406.083.1982.1484.0566.0664.1006.1455.1309.2383.0303.0938.0449.1992.0449.3193v4.6309c0 .1807-.0312.3379-.0947.4727s-.1924.2412-.3877.3193-.4375.1592-.7256.2422c-.2881.084-.5879.1562-.8975.2158-.3096.0605-.6221.1055-.9375.1357-.3154.0293-.6318.0449-.9512.0449-.9316 0-1.7646-.1338-2.501-.4004s-1.3604-.6533-1.8711-1.1602-.9014-1.124-1.1719-1.8525-.4053-1.5537-.4053-2.4775c0-.9531.1436-1.8086.4326-2.5674.2881-.7578.6968-1.4023 1.2256-1.9336.5293-.5303 1.168-.9365 1.916-1.2178.748-.2822 1.582-.4229 2.502-.4229.5049 0 .9639.0342 1.3789.1035.415.0684.7764.1523 1.0859.252.3096.0986.5664.2051.7715.3184.2041.1143.3467.2129.4277.2969s.1396.2031.1758.3555c.0361.1533.0547.3789.0547.6787z" fill="#fff" stroke="#231f20" stroke-miterlimit="10" stroke-width=".1771"/><path d="m31.8229.1771v16.6458h-23.4542l-7.858-8.3229 7.858-8.3229zm.1771-.1771h-23.7077l-8.0252 8.5 8.0252 8.5h23.7077z" fill="#231f20"/></svg>